# AST/ASF file generated using VICON BodyLanguage
# -----------------------------------------------
:version 1.10
:name VICON
:units
  mass 1.0
  length 0.45
  angle deg
:documentation
   .ast/.asf automatically generated from VICON data using
   VICON BodyBuilder and BodyLanguage model FoxedUp or BRILLIANT.MOD
:root
   order TX TY TZ RX RY RZ
   axis XYZ
   position 0 0 0  
   orientation 0 0 0 
:bonedata
  begin
     id 1 
     name lhipjoint
     direction 0.558404 -0.748506 0.357664 
     length 2.4234 
     axis 0 0 0  XYZ
  end
  begin
     id 2 
     name lfemur
     direction 0.34202 -0.939693 0  
     length 7.14567  
     axis 0 0 20  XYZ
    dof rx ry rz
    limits (-160.0 20.0)
           (-70.0 70.0)
           (-60.0 70.0)
  end
  begin
     id 3 
     name ltibia
     direction 0.34202 -0.939693 0   
     length 8.13956   
     axis 0 0 20   XYZ
    dof rx
    limits (-10.0 170.0)
  end
  begin
     id 4 
     name lfoot
     direction 0.0791314 -0.217412 0.972867   
     length 2.00134   
     axis -90 7.62852e-016 20   XYZ
    dof rx rz
    limits (-45.0 90.0)
           (-70.0 20.0)
  end
  begin
     id 5 
     name ltoes
     direction 1.53547e-011 -4.21922e-011 1   
     length 1.00735   
     axis -90 7.62852e-016 20   XYZ
    dof rx
    limits (-90.0 20.0)
  end
  begin
     id 6 
     name rhipjoint
     direction -0.496392 -0.78327 0.374276   
     length 2.31584  
     axis 0 0 0  XYZ 
  end
  begin
     id 7 
     name rfemur
     direction -0.34202 -0.939693 0   
     length 7.47417   
     axis 0 0 -20   XYZ
    dof rx ry rz
    limits (-160.0 20.0)
           (-70.0 70.0)
           (-70.0 60.0)
  end
  begin
     id 8 
     name rtibia
     direction -0.34202 -0.939693 0   
     length 7.69071   
     axis 0 0 -20   XYZ
    dof rx
    limits (-10.0 170.0)
 end
 begin
     id 9 
     name rfoot
     direction -0.103069 -0.28318 0.953512   
     length 2.16135  
     axis -90 -7.62852e-016 -20   XYZ
    dof rx rz
    limits (-45.0 90.0)
           (-20.0 70.0)
  end
  begin
     id 10 
     name rtoes
     direction -1.53581e-011 -4.21904e-011 1   
     length 1.07867   
     axis -90 -7.62852e-016 -20   XYZ
    dof rx
    limits (-90.0 20.0)
  end
  begin
     id 11 
     name lowerback
     direction -0.0258961 0.994776 -0.0987407   
     length 2.19412   
     axis 0 0 0   XYZ
    dof rx ry rz
    limits (-20.0 45.0)
           (-30.0 30.0)
           (-30.0 30.0)
  end
  begin
     id 12 
     name upperback
     direction 0.0402454 0.999185 0.00320666   
     length 2.18445   
     axis 0 0 0   XYZ
    dof rx ry rz
    limits (-20.0 45.0)
           (-30.0 30.0)
           (-30.0 30.0)
  end
  begin
     id 13 
     name thorax
     direction 0.0519376 0.997415 0.0496558   
     length 2.21487   
     axis 0 0 0   XYZ
    dof rx ry rz
    limits (-20.0 45.0)
           (-30.0 30.0)
           (-30.0 30.0)
  end
  begin
     id 14 
     name lowerneck
     direction -0.0921276 0.983211 0.157506   
     length 1.61201   
     axis 0 0 0   XYZ
    dof rx ry rz
    limits (-20.0 45.0)
           (-30.0 30.0)
           (-30.0 30.0)
  end
  begin
     id 15 
     name upperneck
     direction 0.0820814 0.98162 -0.172292   
     length 1.65275   
     axis 0 0 0   XYZ
    dof rx ry rz
    limits (-20.0 45.0)
           (-30.0 30.0)
           (-30.0 30.0)
  end
  begin
     id 16
     name head
     direction 0.0336554 0.996413 -0.0776455  
     length 1.66415  
     axis 0 0 0   XYZ
    dof rx ry rz
    limits (-20.0 45.0)
           (-30.0 30.0)
           (-30.0 30.0)
  end
  begin
     id 17 
     name lclavicle
     direction 0.94696 0.284418 -0.149576  
     length 3.41447  
     axis 0 0 0   XYZ
    dof ry rz
    limits (-20.0 10.0)
           (0.0 20.0)
  end
  begin
     id 18 
     name lhumerus
     direction 1 -0.000130264 -9.81312e-005   
     length 5.19964   
     axis 180 -30 -90   XYZ
    dof rx ry rz
    limits (-60.0 90.0)
           (-90.0 90.0)
           (-90.0 90.0)
  end
  begin
     id 19
     name lradius
     direction 1 -4.48961e-011 1.43854e-026   
     length 3.32189   
     axis 180 -30 -90   XYZ
    dof rx
    limits (-10.0 170.0)
  end
  begin
     id 20
     name lwrist
     direction 1 -4.48958e-011 3.1502e-026   
     length 1.66095   
     axis -1.97692e-014 90 90   XYZ
    dof ry
    limits (-180.0 0.0)
 end
  begin
     id 21 
     name lhand
     direction 1 -4.48927e-011 6.3004e-026   
     length 0.645616   
     axis -4.02019e-014 90 90   XYZ
    dof rx rz
    limits (-90.0 90.0)
           (-45.0 45.0)
  end
  begin
     id 22 
     name lfingers
     direction 1 -4.4904e-011 1.26008e-025   
     length 0.520512   
     axis -8.04039e-014 90 90   XYZ
    dof rx
    limits (0.0 90.0)
  end
  begin
     id 23
     name lthumb
     direction 0.707107 -6.34947e-011 0.707107   
     length 0.747354   
     axis -90 45 2.85299e-015   XYZ
    dof rx rz
    limits (-45.0 45.0)
           (-45.0 45.0)
  end
  begin
     id 24 
     name rclavicle
     direction -0.909391 0.383475 -0.161107   
     length 3.25176  
     axis 0 0 0   XYZ 
    dof ry rz
    limits (-10.0 20.0)
           (-20.0 0.0)
  end
  begin
     id 25 
     name rhumerus
     direction -1 -4.48965e-011 -1.81384e-027  
     length 5.6595   
     axis 180 30 90   XYZ
    dof rx ry rz
    limits (-90.0 60.0)
           (-90.0 90.0)
           (-90.0 90.0)
  end
  begin
     id 26 
     name rradius
     direction -1 -4.48996e-011 -8.09397e-027   
     length 3.37604   
     axis 180 30 90   XYZ
    dof rx
    limits (-10.0 170.0)
  end
  begin
     id 27 
     name rwrist
     direction -1 -4.48927e-011 -1.56669e-026   
     length 1.68802   
     axis 1.21142e-014 -90 -90   XYZ
    dof ry
    limits (-180.0 0.0)
  end
  begin
     id 28
     name rhand
     direction -1 -4.48912e-011 -3.13339e-026   
     length 0.824702   
     axis 1.99937e-014 -90 -90   XYZ
    dof rx rz
    limits (-90.0 90.0)
           (-45.0 45.0)
  end
  begin
     id 29
     name rfingers
     direction -1 -4.49011e-011 -6.26677e-026   
     length 0.664896   
     axis 3.99874e-014 -90 -90   XYZ
    dof rx
    limits (0.0 90.0)
  end
  begin
     id 30
     name rthumb
     direction -0.707107 -6.34931e-011 0.707107   
     length 0.954662   
     axis -90 -45 -2.85299e-015   XYZ
    dof rx rz
    limits (-45.0 45.0)
           (-45.0 45.0)
  end
:hierarchy
  begin
    root lhipjoint rhipjoint lowerback
    lhipjoint lfemur
    lfemur ltibia
    ltibia lfoot
    lfoot ltoes
    rhipjoint rfemur
    rfemur rtibia
    rtibia rfoot
    rfoot rtoes
    lowerback upperback
    upperback thorax
    thorax lowerneck lclavicle rclavicle
    lowerneck upperneck
    upperneck head
    lclavicle lhumerus
    lhumerus lradius
    lradius lwrist
    lwrist lhand lthumb
    lhand lfingers
    rclavicle rhumerus
    rhumerus rradius
    rradius rwrist
    rwrist rhand rthumb
    rhand rfingers
  end

#!OML:ASF F:\VICON\USERDATA\INSTALL\rory3\rory3.ASF
:FULLY-SPECIFIED
:DEGREES
203
root 10.991 17.7373 -17.89 11.6186 -51.3107 -7.33943
lowerback 6.27449 -0.213211 -3.93945
upperback 1.01551 -0.477323 3.59607
thorax -2.40738 -0.206142 6.00686
lowerneck -12.0666 1.1561 -8.68561
upperneck 28.6129 0.603854 9.44777
head 11.1179 0.328161 5.04765
rclavicle -8.04332e-014 1.89839e-014
rhumerus -35.7898 -18.3602 -71.5163
rradius 38.4649
rwrist -15.6418
rhand -11.4588 17.6268
rfingers 7.12502
rthumb 14.5785 -11.8409
lclavicle -8.04332e-014 1.89839e-014
lhumerus -24.8397 25.8916 74.8006
lradius 24.1082
lwrist -11.9277
lhand -3.05557 32.2473
lfingers 7.12502
lthumb 22.6606 60.937
rfemur -29.0261 5.83621 18.1214
rtibia 49.4374
rfoot -13.8361 -0.369227
rtoes 14.4065
lfemur -16.6667 5.95986 -22.4078
ltibia 37.628
lfoot -26.2484 17.0508
ltoes 12.8758
204
root 10.9891 17.7344 -17.8755 11.4716 -51.5573 -7.11275
lowerback 6.26692 -0.213441 -4.15479
upperback 1.10094 -0.493788 3.54122
thorax -2.31081 -0.217699 6.07277
lowerneck -12.5443 1.03365 -9.21789
upperneck 28.976 0.459374 9.85509
head 11.3633 0.253176 5.31037
rclavicle 1.05803e-013 -1.27222e-014
rhumerus -35.6638 -18.379 -71.4968
rradius 38.5122
rwrist -15.4453
rhand -11.7826 17.7014
rfingers 7.12502
rthumb 14.2665 -11.7885
lclavicle 1.05803e-013 -1.27222e-014
lhumerus -24.3481 25.824 74.8495
lradius 23.7434
lwrist -11.6562
lhand -3.68919 31.8945
lfingers 7.12502
lthumb 22.0524 60.6571
rfemur -29.2946 5.77247 17.8769
rtibia 49.8328
rfoot -13.6319 -0.0519382
rtoes 14.4351
lfemur -16.6174 6.00517 -22.6665
ltibia 37.6008
lfoot -26.329 17.263
ltoes 12.6281
205
root 10.9891 17.7324 -17.8663 11.4778 -51.6755 -7.02577
lowerback 6.32589 -0.262927 -4.31208
upperback 1.13518 -0.57284 3.52002
thorax -2.29605 -0.257467 6.1477
lowerneck -13.2426 1.01413 -9.08526
upperneck 29.5535 0.463862 9.71453
head 11.7347 0.251337 5.28235
rclavicle -3.29113e-014 -2.43511e-014
rhumerus -35.5364 -18.4995 -71.4648
rradius 38.5345
rwrist -15.4876
rhand -11.7948 17.8073
rfingers 7.12502
rthumb 14.2547 -11.6835
lclavicle -3.29113e-014 -2.43511e-014
lhumerus -24.0996 26.1977 74.7857
lradius 23.5732
lwrist -11.9619
lhand -3.97528 32.0292
lfingers 7.12502
lthumb 21.7777 60.824
rfemur -29.6296 5.72562 17.7665
rtibia 50.2512
rfoot -13.3533 0.0702627
rtoes 13.5126
lfemur -16.651 6.03154 -22.7851
ltibia 37.5753
lfoot -26.3788 17.3926
ltoes 12.2513
206
root 10.9896 17.7329 -17.8606 11.6573 -51.7967 -7.16328
lowerback 6.42363 -0.275624 -4.33058
upperback 1.15363 -0.594685 3.50754
thorax -2.32847 -0.267878 6.14839
lowerneck -13.1578 1.10251 -8.96989
upperneck 29.5154 0.578573 9.63354
head 11.6898 0.304768 5.2402
rclavicle -7.16494e-014 1.38155e-014
rhumerus -35.4753 -18.4395 -71.5767
rradius 38.6748
rwrist -15.8645
rhand -11.9179 17.744
rfingers 7.12502
rthumb 14.1361 -11.7551
lclavicle -7.16494e-014 1.38155e-014
lhumerus -23.8137 26.3143 74.753
lradius 23.4549
lwrist -11.9377
lhand -4.00199 32.1135
lfingers 7.12502
lthumb 21.752 60.9113
rfemur -29.9607 5.74091 17.7808
rtibia 50.6754
rfoot -13.022 0.184791
rtoes 14.8743
lfemur -16.7128 6.18525 -22.7195
ltibia 37.5618
lfoot -26.3963 17.3383
ltoes 12.1541
207
root 10.9898 17.733 -17.8567 11.8392 -51.9091 -7.25937
lowerback 6.53265 -0.324474 -4.43436
upperback 1.13781 -0.670062 3.52077
thorax -2.39398 -0.302393 6.23061
lowerneck -12.6059 1.28493 -9.08059
upperneck 29.1636 0.830229 9.66593
head 11.4066 0.407804 5.26857
rclavicle 4.36084e-015 -1.08835e-014
rhumerus -35.4539 -17.7762 -71.8236
rradius 38.9686
rwrist -16.4604
rhand -12.0757 17.4982
rfingers 7.12502
rthumb 13.9841 -12.0115
lclavicle 4.36084e-015 -1.08835e-014
lhumerus -23.7391 26.6173 74.6416
lradius 23.5851
lwrist -11.9513
lhand -3.74733 32.207
lfingers 7.12502
lthumb 21.9966 60.9762
rfemur -30.3285 5.84603 17.7358
rtibia 51.0891
rfoot -12.65 0.189348
rtoes 18.4776
lfemur -16.834 6.34635 -22.6817
ltibia 37.5611
lfoot -26.3825 17.3207
ltoes 11.8337
208
root 10.9901 17.7321 -17.8483 12.0308 -51.9856 -7.3763
lowerback 6.67566 -0.411576 -4.5368
upperback 1.0909 -0.797073 3.55442
thorax -2.50287 -0.360397 6.33958
lowerneck -12.4168 1.3856 -9.2147
upperneck 29.1297 0.967679 9.7391
head 11.3353 0.45985 5.32899
rclavicle -1.11878e-014 2.92213e-014
rhumerus -35.4866 -17.2569 -71.9434
rradius 39.2038
rwrist -16.9622
rhand -11.7446 17.4037
rfingers 7.12502
rthumb 14.3031 -12.0837
lclavicle -1.11878e-014 2.92213e-014
lhumerus -23.9603 27.0933 74.4155
lradius 23.8928
lwrist -12.4678
lhand -3.36671 32.45
lfingers 7.12502
lthumb 22.362 61.1758
rfemur -30.6949 5.88731 17.7339
rtibia 51.4714
rfoot -12.2387 0.238259
rtoes 20.4616
lfemur -16.925 6.26978 -22.6519
ltibia 37.5679
lfoot -26.4494 17.4138
ltoes 11.9243
209
root 10.99 17.7325 -17.8305 12.2947 -52.0739 -7.65219
lowerback 6.77116 -0.426373 -4.42655
upperback 1.12704 -0.813069 3.54514
thorax -2.51817 -0.370089 6.26908
lowerneck -12.5562 1.2975 -9.09485
upperneck 29.2126 0.849087 9.62745
head 11.4134 0.405383 5.25942
rclavicle 8.04892e-014 1.28713e-014
rhumerus -35.5065 -17.3247 -71.9393
rradius 39.3364
rwrist -17.3105
rhand -11.2594 17.5438
rfingers 7.12502
rthumb 14.7706 -11.9099
lclavicle 8.04892e-014 1.28713e-014
lhumerus -23.8536 26.9082 74.4319
lradius 23.9931
lwrist -12.5382
lhand -3.40385 32.6355
lfingers 7.12502
lthumb 22.3263 61.3656
rfemur -31.0066 5.68733 17.8784
rtibia 51.8225
rfoot -11.7934 0.484176
rtoes 19.9521
lfemur -16.9199 6.06677 -22.5399
ltibia 37.5764
lfoot -26.6107 17.5613
ltoes 12.4205
210
root 10.9907 17.7315 -17.8091 12.5454 -52.0867 -7.89665
lowerback 6.76694 -0.458068 -4.19653
upperback 1.2257 -0.841647 3.48641
thorax -2.41369 -0.392417 6.07507
lowerneck -12.5628 1.22207 -8.97934
upperneck 29.1232 0.727426 9.58977
head 11.3964 0.360263 5.20552
rclavicle -7.94036e-014 -8.33032e-015
rhumerus -35.4007 -17.4131 -72.0811
rradius 39.406
rwrist -17.4903
rhand -11.5321 17.4668
rfingers 7.12502
rthumb 14.5079 -12.006
lclavicle -7.94036e-014 -8.33032e-015
lhumerus -23.3186 26.4738 74.5584
lradius 23.8009
lwrist -11.9765
lhand -4.13655 32.374
lfingers 7.12502
lthumb 21.6228 61.1867
rfemur -31.3261 5.30262 18.0335
rtibia 52.1778
rfoot -11.4245 0.866006
rtoes 17.9952
lfemur -16.921 5.9668 -22.4479
ltibia 37.5808
lfoot -26.7019 17.6524
ltoes 12.7148
211
root 10.9931 17.7291 -17.7889 12.748 -51.9539 -7.99674
lowerback 6.69006 -0.528846 -3.8606
upperback 1.29837 -0.913712 3.36423
thorax -2.29317 -0.436269 5.75578
lowerneck -12.4216 1.16082 -9.24431
upperneck 28.9232 0.582164 10.0063
head 11.2994 0.3167 5.37989
rclavicle 2.86623e-014 2.13197e-014
rhumerus -35.2937 -17.8683 -72.1744
rradius 39.3433
rwrist -17.1972
rhand -12.1186 17.336
rfingers 7.12502
rthumb 13.9427 -12.1766
lclavicle 2.86623e-014 2.13197e-014
lhumerus -22.5866 25.7389 74.7414
lradius 23.4731
lwrist -11.053
lhand -5.05318 31.9047
lfingers 7.12502
lthumb 20.7423 60.8161
rfemur -31.698 4.95851 18.0815
rtibia 52.5713
rfoot -11.1507 1.21033
rtoes 16.5135
lfemur -17.0153 5.68453 -22.4365
ltibia 37.584
lfoot -26.7725 17.7959
ltoes 13.3308
212
root 10.9848 17.7276 -17.7859 12.77 -52.2002 -7.88522
lowerback 6.63354 -0.44139 -4.03795
upperback 1.39764 -0.811267 3.22612
thorax -2.17115 -0.389622 5.70055
lowerneck -12.6836 1.06234 -9.23907
upperneck 28.998 0.401274 10.1988
head 11.4019 0.261382 5.44223
rclavicle -3.95457e-014 2.08724e-015
rhumerus -35.2239 -18.3987 -72.2183
rradius 39.296
rwrist -16.9702
rhand -12.2606 17.3506
rfingers 7.12502
rthumb 13.8059 -12.1713
lclavicle -3.95457e-014 2.08724e-015
lhumerus -21.8711 24.5429 75.0738
lradius 23.1484
lwrist -9.80075
lhand -5.62518 31.8101
lfingers 7.12502
lthumb 20.1926 60.7806
rfemur -32.0892 5.14292 17.8907
rtibia 53.021
rfoot -10.8383 1.33402
rtoes 17.5561
lfemur -17.0863 5.85373 -22.5771
ltibia 37.5876
lfoot -26.8273 17.8733
ltoes 13.4011
